<mxfile host="Electron" agent="Mozilla/5.0 (Windows NT 10.0; Win64; x64) AppleWebKit/537.36 (KHTML, like Gecko) draw.io/26.0.4 Chrome/128.0.6613.186 Electron/32.2.5 Safari/537.36" version="26.0.4">
  <diagram name="Page-1" id="1Uv465fIs0Szxrj3dDGf">
    <mxGraphModel dx="579" dy="681" grid="1" gridSize="10" guides="1" tooltips="1" connect="1" arrows="1" fold="1" page="1" pageScale="1" pageWidth="850" pageHeight="1100" math="0" shadow="0">
      <root>
        <mxCell id="0" />
        <mxCell id="1" parent="0" />
        <mxCell id="5ubF_J88-ZKzIEncJ6Vw-3" value="" style="edgeStyle=orthogonalEdgeStyle;rounded=0;orthogonalLoop=1;jettySize=auto;html=1;" parent="1" source="5ubF_J88-ZKzIEncJ6Vw-1" target="5ubF_J88-ZKzIEncJ6Vw-2" edge="1">
          <mxGeometry relative="1" as="geometry" />
        </mxCell>
        <mxCell id="5ubF_J88-ZKzIEncJ6Vw-1" value="start" style="ellipse;whiteSpace=wrap;html=1;" parent="1" vertex="1">
          <mxGeometry x="320" y="220" width="120" height="80" as="geometry" />
        </mxCell>
        <mxCell id="5ubF_J88-ZKzIEncJ6Vw-5" value="" style="edgeStyle=orthogonalEdgeStyle;rounded=0;orthogonalLoop=1;jettySize=auto;html=1;" parent="1" source="5ubF_J88-ZKzIEncJ6Vw-2" target="5ubF_J88-ZKzIEncJ6Vw-4" edge="1">
          <mxGeometry relative="1" as="geometry" />
        </mxCell>
        <mxCell id="5ubF_J88-ZKzIEncJ6Vw-2" value="input username&amp;nbsp;" style="shape=parallelogram;perimeter=parallelogramPerimeter;whiteSpace=wrap;html=1;fixedSize=1;" parent="1" vertex="1">
          <mxGeometry x="320" y="390" width="120" height="60" as="geometry" />
        </mxCell>
        <mxCell id="5ubF_J88-ZKzIEncJ6Vw-23" value="" style="edgeStyle=orthogonalEdgeStyle;rounded=0;orthogonalLoop=1;jettySize=auto;html=1;" parent="1" source="5ubF_J88-ZKzIEncJ6Vw-4" target="5ubF_J88-ZKzIEncJ6Vw-22" edge="1">
          <mxGeometry relative="1" as="geometry" />
        </mxCell>
        <mxCell id="5ubF_J88-ZKzIEncJ6Vw-4" value="input password" style="shape=parallelogram;perimeter=parallelogramPerimeter;whiteSpace=wrap;html=1;fixedSize=1;" parent="1" vertex="1">
          <mxGeometry x="320" y="530" width="120" height="60" as="geometry" />
        </mxCell>
        <mxCell id="5ubF_J88-ZKzIEncJ6Vw-87" value="" style="edgeStyle=orthogonalEdgeStyle;rounded=0;orthogonalLoop=1;jettySize=auto;html=1;" parent="1" source="5ubF_J88-ZKzIEncJ6Vw-22" target="5ubF_J88-ZKzIEncJ6Vw-86" edge="1">
          <mxGeometry relative="1" as="geometry" />
        </mxCell>
        <mxCell id="5ubF_J88-ZKzIEncJ6Vw-22" value="input kode sandi&amp;nbsp;" style="shape=parallelogram;perimeter=parallelogramPerimeter;whiteSpace=wrap;html=1;fixedSize=1;" parent="1" vertex="1">
          <mxGeometry x="320" y="670" width="120" height="60" as="geometry" />
        </mxCell>
        <mxCell id="5ubF_J88-ZKzIEncJ6Vw-27" value="" style="edgeStyle=orthogonalEdgeStyle;rounded=0;orthogonalLoop=1;jettySize=auto;html=1;" parent="1" source="5ubF_J88-ZKzIEncJ6Vw-24" target="5ubF_J88-ZKzIEncJ6Vw-26" edge="1">
          <mxGeometry relative="1" as="geometry" />
        </mxCell>
        <mxCell id="5ubF_J88-ZKzIEncJ6Vw-32" value="True" style="edgeLabel;html=1;align=center;verticalAlign=middle;resizable=0;points=[];" parent="5ubF_J88-ZKzIEncJ6Vw-27" vertex="1" connectable="0">
          <mxGeometry x="-0.532" y="4" relative="1" as="geometry">
            <mxPoint x="-1" y="4" as="offset" />
          </mxGeometry>
        </mxCell>
        <mxCell id="5ubF_J88-ZKzIEncJ6Vw-31" value="" style="edgeStyle=orthogonalEdgeStyle;rounded=0;orthogonalLoop=1;jettySize=auto;html=1;" parent="1" source="5ubF_J88-ZKzIEncJ6Vw-24" target="5ubF_J88-ZKzIEncJ6Vw-30" edge="1">
          <mxGeometry relative="1" as="geometry" />
        </mxCell>
        <mxCell id="5ubF_J88-ZKzIEncJ6Vw-33" value="False" style="edgeLabel;html=1;align=center;verticalAlign=middle;resizable=0;points=[];" parent="5ubF_J88-ZKzIEncJ6Vw-31" vertex="1" connectable="0">
          <mxGeometry x="-0.5671" y="2" relative="1" as="geometry">
            <mxPoint y="-2" as="offset" />
          </mxGeometry>
        </mxCell>
        <mxCell id="5ubF_J88-ZKzIEncJ6Vw-24" value="validasi kode" style="rhombus;whiteSpace=wrap;html=1;" parent="1" vertex="1">
          <mxGeometry x="340" y="920" width="80" height="80" as="geometry" />
        </mxCell>
        <mxCell id="5ubF_J88-ZKzIEncJ6Vw-26" value="output&lt;div&gt;1. apakah kode merupakan bil. prima&amp;nbsp;&lt;/div&gt;&lt;div&gt;2. apakah kode merupakan bil.&amp;nbsp;&lt;/div&gt;&lt;div&gt;habis dibagi 2&amp;amp;3 tapi&amp;nbsp;&lt;/div&gt;&lt;div&gt;tidak habis dibagi 5&amp;nbsp;&lt;/div&gt;&lt;div&gt;3. apakah kode merupakan bil. palindrome&amp;nbsp;&lt;/div&gt;&lt;div&gt;4. keluar program&amp;nbsp;&lt;/div&gt;" style="shape=parallelogram;perimeter=parallelogramPerimeter;whiteSpace=wrap;html=1;fixedSize=1;" parent="1" vertex="1">
          <mxGeometry x="470" y="1030" width="200" height="140" as="geometry" />
        </mxCell>
        <mxCell id="9mx1_9pU-RrZV7jALmoB-34" style="edgeStyle=orthogonalEdgeStyle;rounded=0;orthogonalLoop=1;jettySize=auto;html=1;entryX=0;entryY=0.25;entryDx=0;entryDy=0;" edge="1" parent="1" source="5ubF_J88-ZKzIEncJ6Vw-30" target="5ubF_J88-ZKzIEncJ6Vw-22">
          <mxGeometry relative="1" as="geometry">
            <Array as="points">
              <mxPoint x="110" y="1060" />
              <mxPoint x="110" y="689" />
            </Array>
          </mxGeometry>
        </mxCell>
        <mxCell id="5ubF_J88-ZKzIEncJ6Vw-30" value="output&amp;nbsp;&lt;div&gt;input tidak valid&lt;/div&gt;" style="shape=parallelogram;perimeter=parallelogramPerimeter;whiteSpace=wrap;html=1;fixedSize=1;" parent="1" vertex="1">
          <mxGeometry x="170" y="1030" width="120" height="60" as="geometry" />
        </mxCell>
        <mxCell id="5ubF_J88-ZKzIEncJ6Vw-88" style="edgeStyle=orthogonalEdgeStyle;rounded=0;orthogonalLoop=1;jettySize=auto;html=1;exitX=0.5;exitY=1;exitDx=0;exitDy=0;entryX=0.5;entryY=0;entryDx=0;entryDy=0;" parent="1" source="5ubF_J88-ZKzIEncJ6Vw-86" target="5ubF_J88-ZKzIEncJ6Vw-24" edge="1">
          <mxGeometry relative="1" as="geometry" />
        </mxCell>
        <mxCell id="5ubF_J88-ZKzIEncJ6Vw-86" value="&lt;div&gt;1. harus lebih dari 100&lt;/div&gt;&lt;div&gt;2. tidak boleh lebih dari 99999&lt;/div&gt;" style="whiteSpace=wrap;html=1;" parent="1" vertex="1">
          <mxGeometry x="320" y="810" width="120" height="60" as="geometry" />
        </mxCell>
        <mxCell id="9mx1_9pU-RrZV7jALmoB-25" style="edgeStyle=orthogonalEdgeStyle;rounded=0;orthogonalLoop=1;jettySize=auto;html=1;exitX=1;exitY=0.5;exitDx=0;exitDy=0;entryX=0;entryY=0.5;entryDx=0;entryDy=0;" edge="1" parent="1" source="9mx1_9pU-RrZV7jALmoB-20" target="9mx1_9pU-RrZV7jALmoB-21">
          <mxGeometry relative="1" as="geometry" />
        </mxCell>
        <mxCell id="9mx1_9pU-RrZV7jALmoB-30" value="" style="edgeStyle=orthogonalEdgeStyle;rounded=0;orthogonalLoop=1;jettySize=auto;html=1;" edge="1" parent="1" source="9mx1_9pU-RrZV7jALmoB-20" target="9mx1_9pU-RrZV7jALmoB-29">
          <mxGeometry relative="1" as="geometry" />
        </mxCell>
        <mxCell id="9mx1_9pU-RrZV7jALmoB-20" value="menu 1&amp;nbsp;" style="rhombus;whiteSpace=wrap;html=1;" vertex="1" parent="1">
          <mxGeometry x="320" y="1330" width="80" height="80" as="geometry" />
        </mxCell>
        <mxCell id="9mx1_9pU-RrZV7jALmoB-26" style="edgeStyle=orthogonalEdgeStyle;rounded=0;orthogonalLoop=1;jettySize=auto;html=1;exitX=1;exitY=0.5;exitDx=0;exitDy=0;entryX=0;entryY=0.5;entryDx=0;entryDy=0;" edge="1" parent="1" source="9mx1_9pU-RrZV7jALmoB-21" target="9mx1_9pU-RrZV7jALmoB-22">
          <mxGeometry relative="1" as="geometry" />
        </mxCell>
        <mxCell id="9mx1_9pU-RrZV7jALmoB-21" value="menu 2" style="rhombus;whiteSpace=wrap;html=1;" vertex="1" parent="1">
          <mxGeometry x="470" y="1330" width="80" height="80" as="geometry" />
        </mxCell>
        <mxCell id="9mx1_9pU-RrZV7jALmoB-27" style="edgeStyle=orthogonalEdgeStyle;rounded=0;orthogonalLoop=1;jettySize=auto;html=1;exitX=1;exitY=0.5;exitDx=0;exitDy=0;entryX=0;entryY=0.5;entryDx=0;entryDy=0;" edge="1" parent="1" source="9mx1_9pU-RrZV7jALmoB-22" target="9mx1_9pU-RrZV7jALmoB-23">
          <mxGeometry relative="1" as="geometry" />
        </mxCell>
        <mxCell id="9mx1_9pU-RrZV7jALmoB-22" value="menu 3" style="rhombus;whiteSpace=wrap;html=1;" vertex="1" parent="1">
          <mxGeometry x="610" y="1330" width="80" height="80" as="geometry" />
        </mxCell>
        <mxCell id="9mx1_9pU-RrZV7jALmoB-23" value="menu 4" style="rhombus;whiteSpace=wrap;html=1;" vertex="1" parent="1">
          <mxGeometry x="760" y="1330" width="80" height="80" as="geometry" />
        </mxCell>
        <mxCell id="9mx1_9pU-RrZV7jALmoB-29" value="output&amp;nbsp;&lt;div&gt;adalah bilangan&amp;nbsp;&lt;/div&gt;&lt;div&gt;prima&amp;nbsp;&lt;/div&gt;" style="shape=parallelogram;perimeter=parallelogramPerimeter;whiteSpace=wrap;html=1;fixedSize=1;" vertex="1" parent="1">
          <mxGeometry x="300" y="1500" width="120" height="60" as="geometry" />
        </mxCell>
        <mxCell id="9mx1_9pU-RrZV7jALmoB-35" style="edgeStyle=orthogonalEdgeStyle;rounded=0;orthogonalLoop=1;jettySize=auto;html=1;entryX=0.5;entryY=0;entryDx=0;entryDy=0;" edge="1" parent="1" source="5ubF_J88-ZKzIEncJ6Vw-26" target="9mx1_9pU-RrZV7jALmoB-20">
          <mxGeometry relative="1" as="geometry">
            <mxPoint x="360" y="1320" as="targetPoint" />
            <Array as="points">
              <mxPoint x="570" y="1240" />
              <mxPoint x="360" y="1240" />
            </Array>
          </mxGeometry>
        </mxCell>
      </root>
    </mxGraphModel>
  </diagram>
</mxfile>
